<?xml version="1.0" encoding="UTF-8"?>
<svg width="30px" height="30px" viewBox="0 0 30 30" version="1.1" xmlns="http://www.w3.org/2000/svg" xmlns:xlink="http://www.w3.org/1999/xlink">
    <title>!Icons/Used/Communication/Email</title>
    <g id="!Icons/Used/Communication/Email" stroke="none" stroke-width="1" fill="none" fill-rule="evenodd">
        <path d="M14.4118283,14.5722388 L5.1,7.8 L5.1,7.8 C5.02687522,7.8820196 4.99071193,7.99050945 5,8.1 L5,21.9 C5,22.5075132 5.49248678,23 6.1,23 L23.9,23 C24.5075132,23 25,22.5075132 25,21.9 L25,8.1 C25.0092881,7.99050945 24.9731248,7.8820196 24.9,7.8 L15.5881717,14.5722388 C15.2375212,14.8272573 14.7624788,14.8272573 14.4118283,14.5722388 Z" id="Path" fill="#A7B4CB" opacity="0.6"></path>
        <path d="M14.4156953,14.5793006 L5,7.8 L5,7.8 C5.04477153,7.37810486 5.37810486,7.04477153 5.8,7 L24.2,7 C24.6218951,7.04477153 24.9552285,7.37810486 25,7.8 L15.5843047,14.5793006 C15.2352942,14.8305881 14.7647058,14.8305881 14.4156953,14.5793006 Z" id="Path" fill="#16161F"></path>
    </g>
</svg>