<?xml version="1.0" encoding="UTF-8"?>
<svg width="30px" height="30px" viewBox="0 0 30 30" version="1.1" xmlns="http://www.w3.org/2000/svg" xmlns:xlink="http://www.w3.org/1999/xlink">
    <title>!Icons/Used/Education/Bell</title>
    <g id="!Icons/Used/Education/Bell" stroke="none" stroke-width="1" fill="none" fill-rule="evenodd">
        <rect id="Rectangle" x="0" y="0" width="30" height="30"></rect>
        <g id="Bell" transform="translate(5.000000, 5.000000)">
            <path d="M15.3,0.9 C15.6888435,0.518857124 16.3111565,0.518857124 16.7,0.9 L16.7,0.9 L18.1,2.3 C18.4811429,2.68884351 18.4811429,3.31115649 18.1,3.7 L18.1,3.7 L17.4056962,4.39429929 C18.8104601,7.17019695 18.3169847,10.6281771 16,12.9 L16,12.9 L15.5,13.4 C15.3775555,13.5385463 15.3068825,13.7152289 15.3,13.9 L15.3,13.9 L14.7,16.8 L14.4,17.3 L13,18.7 C12.6766161,19.0019184 12.2038232,19.0807172 11.8,18.9 C9.481234,17.370037 7.33533969,15.5929683 5.4,13.6 C3.40703169,11.6646603 1.62996296,9.518766 0.1,7.2 C-0.080717207,6.79617679 -0.00191839832,6.32338394 0.3,6 L0.3,6 L1.7,4.6 L2.2,4.3 L5.1,3.7 L5.6,3.5 L6.3,2.8 C7.63359492,1.43778721 9.46507628,0.67839599 11.3713142,0.697269632 C12.5283824,0.708725753 13.6522353,1.00632219 14.6490406,1.54895722 Z" id="Combined-Shape" fill="#A7B4CB" opacity="0.6"></path>
            <path d="M5.4,13.6 C4.4,12.5 3.5,11.6 2.8,10.7 C1.83466045,12.2767766 2.0757034,14.309682 3.3830107,15.6169893 C4.690318,16.9242966 6.72322345,17.1653396 8.3,16.2 C7.4,15.5 6.5,14.6 5.4,13.6 Z" id="Path" fill="#16161F"></path>
        </g>
    </g>
</svg>